<svg xmlns="http://www.w3.org/2000/svg" xmlns:xlink="http://www.w3.org/1999/xlink" width="500" zoomAndPan="magnify" viewBox="0 0 375 374.999991" height="500" preserveAspectRatio="xMidYMid meet" version="1.0"><defs><g/></defs><g fill="#0d0f16" fill-opacity="1"><g transform="translate(158.260218, 262.615325)"><g><path d="M 2.25 0 C 7.082031 -2.332031 10.914062 -4.707031 13.75 -7.125 C 16.582031 -9.539062 19 -12.707031 21 -16.625 C 23 -20.539062 25.25 -25.75 27.75 -32.25 L 76.25 -157.5 L 137.75 -157.5 L 186.25 -32.25 C 188.75 -25.75 191 -20.539062 193 -16.625 C 195 -12.707031 197.414062 -9.539062 200.25 -7.125 C 203.082031 -4.707031 206.914062 -2.332031 211.75 0 L 130.5 0 C 137.164062 -1.332031 141.914062 -3.164062 144.75 -5.5 C 147.582031 -7.832031 149 -10.914062 149 -14.75 C 149 -17.75 148.082031 -21.75 146.25 -26.75 L 141 -41.25 L 73 -41.25 L 67.75 -26.75 C 65.914062 -21.75 65 -17.75 65 -14.75 C 65 -10.914062 66.414062 -7.832031 69.25 -5.5 C 72.082031 -3.164062 76.832031 -1.332031 83.5 0 Z M 83.75 -70.5 L 130 -70.5 L 106.75 -132.75 Z M 83.75 -70.5 "/></g></g></g><g fill="#3b82f6" fill-opacity="1"><g transform="translate(-4.619247, 268.149882)"><g><path d="M 55.59375 -83.796875 C 55.59375 -65.703125 60.78125 -52 71.15625 -42.6875 C 81.53125 -33.382812 95.847656 -28.734375 114.109375 -28.734375 C 132.554688 -28.734375 146.921875 -33.382812 157.203125 -42.6875 C 167.492188 -52 172.640625 -65.703125 172.640625 -83.796875 C 172.640625 -101.878906 167.492188 -115.617188 157.203125 -125.015625 C 146.921875 -134.421875 132.554688 -139.125 114.109375 -139.125 C 95.847656 -139.125 81.53125 -134.421875 71.15625 -125.015625 C 60.78125 -115.617188 55.59375 -101.878906 55.59375 -83.796875 Z M 13.5625 -83.796875 C 13.5625 -112.515625 22.207031 -134.054688 39.5 -148.421875 C 56.789062 -162.785156 81.75 -169.96875 114.375 -169.96875 C 147.1875 -169.96875 172.191406 -162.785156 189.390625 -148.421875 C 206.585938 -134.054688 215.1875 -112.515625 215.1875 -83.796875 C 215.1875 -55.066406 206.539062 -33.519531 189.25 -19.15625 C 171.96875 -4.789062 146.921875 2.390625 114.109375 2.390625 C 81.484375 2.390625 56.566406 -4.789062 39.359375 -19.15625 C 22.160156 -33.519531 13.5625 -55.066406 13.5625 -83.796875 Z M 13.5625 -83.796875 "/></g></g></g></svg>